<svg width="44" height="44" viewBox="0 0 44 44" fill="none" xmlns="http://www.w3.org/2000/svg">
<path d="M13 19.7778H7.2C6.07989 19.7778 5.51984 19.7778 5.09202 20.02C4.71569 20.233 4.40973 20.573 4.21799 20.9911C4 21.4665 4 22.0888 4 23.3333V42M31 19.7778H36.8C37.9201 19.7778 38.4802 19.7778 38.908 20.02C39.2843 20.233 39.5903 20.573 39.782 20.9911C40 21.4665 40 22.0888 40 23.3333V42M31 42V9.11111C31 6.62199 31 5.37743 30.564 4.42671C30.1805 3.59043 29.5686 2.91052 28.816 2.48442C27.9603 2 26.8402 2 24.6 2H19.4C17.1598 2 16.0397 2 15.184 2.48442C14.4314 2.91052 13.8195 3.59043 13.436 4.42671C13 5.37743 13 6.62199 13 9.11111V42M42 42H2M20 10.8889H24M20 19.7778H24M20 28.6667H24" stroke="#444444" stroke-width="4" stroke-linecap="round" stroke-linejoin="round"/>
</svg>
