<svg width="40" height="44" viewBox="0 0 40 44" fill="none" xmlns="http://www.w3.org/2000/svg">
<path d="M24.5 20H11M15.5 28H11M29 12H11M38 11.6V32.4C38 35.7603 38 37.4405 37.2643 38.7239C36.6171 39.8529 35.5845 40.7708 34.3144 41.346C32.8705 42 30.9804 42 27.2 42H12.8C9.01965 42 7.12947 42 5.68556 41.346C4.41547 40.7708 3.38285 39.8529 2.73571 38.7239C2 37.4405 2 35.7603 2 32.4V11.6C2 8.23969 2 6.55953 2.73571 5.27606C3.38285 4.14708 4.41547 3.2292 5.68556 2.65396C7.12947 2 9.01965 2 12.8 2H27.2C30.9804 2 32.8705 2 34.3144 2.65396C35.5845 3.2292 36.6171 4.14708 37.2643 5.27606C38 6.55953 38 8.23969 38 11.6Z" stroke="#444444" stroke-width="4" stroke-linecap="round" stroke-linejoin="round"/>
</svg>
