<svg width="52" height="44" viewBox="0 0 52 44" fill="none" xmlns="http://www.w3.org/2000/svg">
<path d="M2 9.5L21.5958 23.7886C23.1826 24.9457 23.976 25.5242 24.839 25.7483C25.6013 25.9462 26.3987 25.9462 27.161 25.7483C28.024 25.5242 28.8174 24.9457 30.4042 23.7886L50 9.5M13.52 42H38.48C42.5124 42 44.5286 42 46.0687 41.1825C47.4235 40.4635 48.525 39.3161 49.2152 37.9049C50 36.3006 50 34.2004 50 30V14C50 9.79961 50 7.69941 49.2152 6.09507C48.525 4.68386 47.4235 3.5365 46.0687 2.81745C44.5286 2 42.5124 2 38.48 2H13.52C9.48762 2 7.47143 2 5.93127 2.81745C4.5765 3.5365 3.47504 4.68386 2.78475 6.09507C2 7.69941 2 9.79961 2 14V30C2 34.2004 2 36.3006 2.78475 37.9049C3.47504 39.3161 4.5765 40.4635 5.93127 41.1825C7.47143 42 9.48762 42 13.52 42Z" stroke="#444444" stroke-width="4" stroke-linecap="round" stroke-linejoin="round"/>
</svg>
