<svg width="20" height="14" viewBox="0 0 20 14" fill="none" xmlns="http://www.w3.org/2000/svg">
<path d="M1.24124 7.6113C1.11674 7.42646 1.05448 7.33404 1.01963 7.1915C0.993456 7.08443 0.993456 6.91557 1.01963 6.8085C1.05448 6.66596 1.11674 6.57354 1.24124 6.3887C2.27015 4.86129 5.33276 1 10 1C14.6672 1 17.7299 4.86129 18.7588 6.3887C18.8833 6.57354 18.9455 6.66596 18.9804 6.8085C19.0065 6.91557 19.0065 7.08443 18.9804 7.1915C18.9455 7.33404 18.8833 7.42646 18.7588 7.6113C17.7299 9.13871 14.6672 13 10 13C5.33276 13 2.27015 9.13871 1.24124 7.6113Z" stroke="#9C9C9C" stroke-width="2" stroke-linecap="round" stroke-linejoin="round"/>
<path d="M10 9.57143C11.5148 9.57143 12.7427 8.42016 12.7427 7C12.7427 5.57984 11.5148 4.42857 10 4.42857C8.48522 4.42857 7.25726 5.57984 7.25726 7C7.25726 8.42016 8.48522 9.57143 10 9.57143Z" stroke="#9C9C9C" stroke-width="2" stroke-linecap="round" stroke-linejoin="round"/>
</svg>
