<svg width="13" height="24" viewBox="0 0 13 24" fill="none" xmlns="http://www.w3.org/2000/svg">
<path d="M4.33334 21H8.66668M6.50001 17V21M3.68334 17H9.31668C10.2268 17 10.6818 17 11.0294 16.673C11.3352 16.3854 11.5838 15.9265 11.7396 15.362C11.9167 14.7202 11.9167 13.8802 11.9167 12.2V7.8C11.9167 6.11984 11.9167 5.27976 11.7396 4.63803C11.5838 4.07354 11.3352 3.6146 11.0294 3.32698C10.6818 3 10.2268 3 9.31668 3H3.68334C2.77326 3 2.31822 3 1.97061 3.32698C1.66485 3.6146 1.41625 4.07354 1.26046 4.63803C1.08334 5.27976 1.08334 6.11984 1.08334 7.8V12.2C1.08334 13.8802 1.08334 14.7202 1.26046 15.362C1.41625 15.9265 1.66485 16.3854 1.97061 16.673C2.31822 17 2.77326 17 3.68334 17Z" stroke="black" stroke-width="2" stroke-linecap="round" stroke-linejoin="round"/>
</svg>
