<svg width="44" height="44" viewBox="0 0 44 44" fill="none" xmlns="http://www.w3.org/2000/svg">
<path d="M10.8889 13.9179H22M10.8889 21.502H28.6667M16.8528 34.5033H31.3333C35.067 34.5033 36.9339 34.5033 38.3599 33.7947C39.6143 33.1715 40.6342 32.177 41.2734 30.9538C42 29.5633 42 27.7429 42 24.1022V12.401C42 8.76034 42 6.93998 41.2734 5.54942C40.6342 4.32624 39.6143 3.33177 38.3599 2.70853C36.9339 2 35.067 2 31.3333 2H12.6667C8.93298 2 7.06614 2 5.64006 2.70853C4.38565 3.33177 3.36578 4.32624 2.72662 5.54942C2 6.93998 2 8.76034 2 12.401V39.564C2 40.7186 2 41.296 2.24273 41.5925C2.45383 41.8503 2.77393 42.0004 3.11231 42C3.50139 41.9996 3.96371 41.6389 4.88835 40.9177L10.1894 36.7825C11.2723 35.9377 11.8137 35.5153 12.4166 35.215C12.9516 34.9485 13.521 34.7537 14.1094 34.636C14.7726 34.5033 15.466 34.5033 16.8528 34.5033Z" stroke="#444444" stroke-width="4" stroke-linecap="round" stroke-linejoin="round"/>
</svg>
