<svg width="44" height="44" viewBox="0 0 44 44" fill="none" xmlns="http://www.w3.org/2000/svg">
<path d="M13.7183 15.5415C15.2146 18.6581 17.2544 21.579 19.8377 24.1623C22.421 26.7456 25.3419 28.7854 28.4585 30.2817C28.7265 30.4105 28.8606 30.4748 29.0302 30.5242C29.6329 30.6999 30.373 30.5737 30.8835 30.2082C31.0271 30.1054 31.15 29.9825 31.3958 29.7367C32.1474 28.9851 32.5232 28.6093 32.9011 28.3636C34.3263 27.437 36.1635 27.437 37.5887 28.3636C37.9666 28.6093 38.3424 28.9851 39.094 29.7367L39.513 30.1557C40.6555 31.2982 41.2268 31.8695 41.5371 32.4831C42.1543 33.7033 42.1543 35.1443 41.5371 36.3645C41.2268 36.978 40.6555 37.5493 39.513 38.6918L39.1741 39.0307C38.0354 40.1694 37.4661 40.7387 36.6921 41.1735C35.8332 41.656 34.4992 42.0029 33.514 42C32.6262 41.9973 32.0195 41.8251 30.806 41.4807C24.2845 39.6297 18.1306 36.1372 12.9967 31.0033C7.86278 25.8693 4.37031 19.7155 2.51931 13.194C2.17488 11.9805 2.00266 11.3738 2.00002 10.486C1.99709 9.50083 2.344 8.16683 2.82648 7.30793C3.2613 6.5339 3.83062 5.96458 4.96926 4.82594L5.30816 4.48704C6.45071 3.34448 7.02198 2.77321 7.63553 2.46288C8.85573 1.84571 10.2967 1.84571 11.5169 2.46288C12.1305 2.77321 12.7018 3.34448 13.8443 4.48703L14.2633 4.90599C15.0149 5.65761 15.3907 6.03342 15.6364 6.41132C16.563 7.83648 16.563 9.67375 15.6364 11.0989C15.3907 11.4768 15.0149 11.8526 14.2633 12.6042C14.0175 12.85 13.8946 12.9729 13.7918 13.1165C13.4263 13.627 13.3001 14.3671 13.4758 14.9698C13.5252 15.1394 13.5896 15.2735 13.7183 15.5415Z" stroke="#444444" stroke-width="4" stroke-linecap="round" stroke-linejoin="round"/>
</svg>
