<svg width="44" height="44" viewBox="0 0 44 44" fill="none" xmlns="http://www.w3.org/2000/svg">
<path d="M28.6667 42V30C28.6667 28.7554 28.6667 28.1332 28.4245 27.6578C28.2114 27.2397 27.8715 26.8997 27.4533 26.6867C26.978 26.4444 26.3557 26.4444 25.1111 26.4444H18.8889C17.6443 26.4444 17.022 26.4444 16.5467 26.6867C16.1286 26.8997 15.7886 27.2397 15.5755 27.6578C15.3333 28.1332 15.3333 28.7554 15.3333 30V42M2 10.8889C2 14.5708 4.98477 17.5556 8.66667 17.5556C12.3486 17.5556 15.3333 14.5708 15.3333 10.8889C15.3333 14.5708 18.3181 17.5556 22 17.5556C25.6819 17.5556 28.6667 14.5708 28.6667 10.8889C28.6667 14.5708 31.6514 17.5556 35.3333 17.5556C39.0152 17.5556 42 14.5708 42 10.8889M9.11111 42H34.8889C37.378 42 38.6226 42 39.5733 41.5156C40.4096 41.0895 41.0895 40.4096 41.5156 39.5733C42 38.6226 42 37.378 42 34.8889V9.11111C42 6.62199 42 5.37743 41.5156 4.42671C41.0895 3.59043 40.4096 2.91052 39.5733 2.48442C38.6226 2 37.378 2 34.8889 2H9.11111C6.62199 2 5.37743 2 4.42671 2.48442C3.59043 2.91052 2.91052 3.59043 2.48442 4.42671C2 5.37743 2 6.62199 2 9.11111V34.8889C2 37.378 2 38.6226 2.48442 39.5733C2.91052 40.4096 3.59043 41.0895 4.42671 41.5156C5.37743 42 6.62199 42 9.11111 42Z" stroke="#444444" stroke-width="4" stroke-linecap="round" stroke-linejoin="round"/>
</svg>
