<svg width="44" height="44" viewBox="0 0 44 44" fill="none" xmlns="http://www.w3.org/2000/svg">
<path d="M10 10.3676L19 19.7812M10 10.3676H4L2 4.09191L4 2L10 4.09191V10.3676ZM36.518 3.55013L31.2627 9.04686C30.4707 9.87529 30.0747 10.2895 29.9263 10.7671C29.7958 11.1873 29.7958 11.6399 29.9263 12.06C30.0747 12.5377 30.4707 12.9519 31.2627 13.7803L31.7373 14.2766C32.5293 15.1051 32.9253 15.5193 33.382 15.6745C33.7837 15.811 34.2163 15.811 34.618 15.6745C35.0747 15.5193 35.4707 15.1051 36.2627 14.2766L41.1786 9.1349C41.708 10.4824 42 11.9583 42 13.5055C42 19.8598 37.0751 25.011 31 25.011C30.2676 25.011 29.5519 24.9361 28.8595 24.7933C27.8872 24.5927 27.4011 24.4924 27.1064 24.5232C26.7931 24.5558 26.6386 24.6049 26.361 24.7603C26.0999 24.9065 25.8379 25.1805 25.3141 25.7284L11 40.7003C9.34315 42.4332 6.65686 42.4332 5 40.7003C3.34315 38.9673 3.34315 36.1575 5 34.4245L19.3141 19.4527C19.8379 18.9048 20.0999 18.6308 20.2396 18.3576C20.3882 18.0673 20.4352 17.9058 20.4664 17.578C20.4958 17.2698 20.3999 16.7613 20.2081 15.7443C20.0716 15.0202 20 14.2716 20 13.5055C20 7.15118 24.9249 2 31 2C33.011 2 34.896 2.56444 36.518 3.55013ZM22.0001 29.1947L33 40.7001C34.6568 42.433 37.3431 42.433 39 40.7001C40.6568 38.9671 40.6568 36.1573 39 34.4243L29.9506 24.9593C29.31 24.8959 28.6854 24.775 28.0816 24.6017C27.3034 24.3783 26.4499 24.5404 25.8793 25.1372L22.0001 29.1947Z" stroke="#444444" stroke-width="4" stroke-linecap="round" stroke-linejoin="round"/>
</svg>
